<svg height="512" viewBox="0 0 64 64" width="512" xmlns="http://www.w3.org/2000/svg"><g id="Hospital-2" data-name="Hospital"><path d="m27 13h-18v48h23v-48z" fill="#57a4ff"/><path d="m55 13h-18-5v48h23z" fill="#9bc9ff"/><path d="m32 3h5v10h-5z" fill="#f00"/><path d="m27 3h5v10h-5z" fill="#e50000"/><g fill="#f1f2f2"><path d="m33 5h-2v2h-2v2h2v2h2v-2h2v-2h-2z"/><path d="m14 18h6v4h-6z"/><path d="m24 18h6v4h-6z"/><path d="m34 18h6v4h-6z"/><path d="m44 18h6v4h-6z"/><path d="m14 26h6v4h-6z"/><path d="m24 26h6v4h-6z"/><path d="m34 26h6v4h-6z"/><path d="m44 26h6v4h-6z"/><path d="m14 34h6v4h-6z"/><path d="m24 34h6v4h-6z"/><path d="m34 34h6v4h-6z"/><path d="m44 34h6v4h-6z"/></g><path d="m40 47h3v-4h-22v4h3 8z" fill="#58595b"/><path d="m9 60v-8h-2v8h-3v2h8v-2z" fill="#8b5e3c"/><path d="m58 60v-6h-2v6h-2v2h6v-2z" fill="#8b5e3c"/><path d="m32 47h8v14h-8z" fill="#a7a9ac"/><path d="m24 47h8v14h-8z" fill="#939598"/><path d="m61 50c0-2.761-1.791-7-4-7s-4 4.239-4 7 1.791 5 4 5 4-2.239 4-5z" fill="#449903"/><path d="m8 53c2.761 0 5-2.686 5-6s-2.239-8-5-8-5 4.686-5 8 2.239 6 5 6z" fill="#367a02"/><path d="m31 47h2v6h-2z" fill="#6d6e71"/><path d="m31 55h2v7h-2z" fill="#6d6e71"/><path d="m18 60h28v2h-28z" fill="#58595b"/></g></svg>